<svg viewBox="611.0875000000001 -7.8611111111111995 295.68749999999983 491.3194444444445" xmlns="http://www.w3.org/2000/svg" xmlns:xlink="http://www.w3.org/1999/xlink" overflow="visible" width="295.68749999999983px" height="491.3194444444445px"><defs><path d="M0.385,131.831 L263.946,131.831 C263.946,59.051 204.947,0.05 132.167,0.05 L132.167,0.05 C59.385,0.05 0.385,59.051 0.385,131.831" id="masterstickershanging-lamp-1-path-3"/><path d="M0.385,131.831 L263.946,131.831 C263.946,59.051 204.947,0.05 132.167,0.05 L132.167,0.05 C59.385,0.05 0.385,59.051 0.385,131.831" id="masterstickershanging-lamp-1-path-5"/><path d="M0.385,131.831 L263.946,131.831 C263.946,59.051 204.947,0.05 132.167,0.05 L132.167,0.05 C59.385,0.05 0.385,59.051 0.385,131.831" id="masterstickershanging-lamp-1-path-7"/><path d="M0.385,131.831 L263.946,131.831 C263.946,59.051 204.947,0.05 132.167,0.05 L132.167,0.05 C59.385,0.05 0.385,59.051 0.385,131.831" id="masterstickershanging-lamp-1-path-9"/><path d="M0.385,131.831 L263.946,131.831 C263.946,59.051 204.947,0.05 132.167,0.05 L132.167,0.05 C59.385,0.05 0.385,59.051 0.385,131.831" id="masterstickershanging-lamp-1-path-11"/><polygon id="masterstickershanging-lamp-1-path-1" points="0.5593 0.475 3.7733 0.475 3.7733 294.657 0.5593 294.657"/></defs><g id="Master/Stickers/Hanging Lamp 1" stroke="none" stroke-width="1" fill="none" fill-rule="evenodd"><g id="Group-119" transform="translate(629.000000, 0.000000)"><g id="Group-30"><g id="Group-23" transform="translate(130.000000, 0.000000)"><mask id="masterstickershanging-lamp-1-mask-2" fill="#fff"><use xlink:href="#masterstickershanging-lamp-1-path-1"/></mask><g id="Clip-22"/><path d="M2.1663,294.657 C1.2783,294.657 0.5593,293.938 0.5593,293.05 L0.5593,2.082 C0.5593,1.195 1.2783,0.475 2.1663,0.475 C3.0543,0.475 3.7733,1.195 3.7733,2.082 L3.7733,293.05 C3.7733,293.938 3.0543,294.657 2.1663,294.657" id="Fill-21" fill="#043c35" mask="url(#masterstickershanging-lamp-1-mask-2)"/></g><path d="M174.5657,424.8308 C174.5657,448.2478 155.5827,467.2308 132.1667,467.2308 C108.7497,467.2308 89.7657,448.2478 89.7657,424.8308 C89.7657,401.4138 108.7497,382.4308 132.1667,382.4308 C155.5827,382.4308 174.5657,401.4138 174.5657,424.8308" id="Fill-24" fill="#bdf2e9"/><path d="M0.3851,424.8308 C0.3851,352.0498 59.3851,293.0498 132.1661,293.0498 C204.9471,293.0498 263.9471,352.0498 263.9471,424.8308 L0.3851,424.8308 Z" id="Fill-26" fill="#42746c"/><path d="M138.0257,456.5984 C137.3047,456.5984 136.6497,456.1104 136.4667,455.3794 C136.2527,454.5184 136.7767,453.6464 137.6377,453.4314 C156.2557,448.7894 156.5107,433.8574 156.5117,433.2244 C156.5147,432.3384 157.2337,431.6194 158.1197,431.6194 C159.0047,431.6194 159.7237,432.3334 159.7267,433.2184 C159.7267,433.3984 159.5417,451.2834 138.4157,456.5504 C138.2847,456.5824 138.1547,456.5984 138.0257,456.5984" id="Fill-28" fill="#bdf2e9"/></g><g id="Group-46" transform="translate(0.000000, 293.000000)"><g id="Group-33"><mask id="masterstickershanging-lamp-1-mask-4" fill="#fff"><use xlink:href="#masterstickershanging-lamp-1-path-3"/></mask><g id="Clip-32"/><path d="M-36.4079,143.3001 C-36.7319,143.3001 -37.0589,143.2021 -37.3429,143.0001 C-38.0639,142.4831 -38.2299,141.4791 -37.7139,140.7581 C-21.1989,117.6781 -2.7769,93.5711 20.0001,73.6121 C44.6141,52.0451 71.7471,38.1601 98.4651,33.4571 C108.7201,31.6541 115.7491,33.1051 119.9461,37.9001 C124.6021,43.2231 124.5251,51.9341 119.7381,61.2011 C117.9061,64.7471 115.7261,68.1351 113.6161,71.4121 C110.8201,75.7561 107.9281,80.2481 105.9321,85.0231 C102.9681,92.1111 101.6901,102.7521 107.8391,109.4111 C111.4381,113.3071 117.4141,115.4331 124.3081,115.2711 C138.7041,114.9091 151.0101,106.2441 164.4611,95.8111 L293.6671,-4.3969 C294.3681,-4.9409 295.3781,-4.8139 295.9221,-4.1119 C296.4661,-3.4109 296.3391,-2.4009 295.6381,-1.8569 L166.4321,98.3511 C155.7031,106.6721 141.0111,118.0661 124.3881,118.4841 C116.6021,118.6841 109.7041,116.1671 105.4781,111.5921 C98.2941,103.8141 99.6361,91.7501 102.9671,83.7821 C105.0721,78.7471 108.0421,74.1331 110.9131,69.6721 C112.9831,66.4591 115.1211,63.1361 116.8831,59.7261 C118.4411,56.7111 123.0901,46.3761 117.5261,40.0161 C114.1331,36.1391 108.0781,35.0281 99.0221,36.6231 C72.8831,41.2231 46.2901,54.8501 22.1191,76.0291 C-0.4129,95.7731 -18.6969,119.7061 -35.0999,142.6281 C-35.4139,143.0661 -35.9069,143.3001 -36.4079,143.3001" id="Fill-31" fill="#7eb1a8" mask="url(#masterstickershanging-lamp-1-mask-4)"/></g><g id="Group-36"><mask id="masterstickershanging-lamp-1-mask-6" fill="#fff"><use xlink:href="#masterstickershanging-lamp-1-path-5"/></mask><g id="Clip-35"/><path d="M158.7591,66.7058 C152.6271,66.7058 146.5311,64.3828 143.1361,59.1118 C139.4391,53.3738 140.0701,46.0048 141.0321,40.2268 C145.1141,15.7208 156.9051,-7.5802 174.2311,-25.3842 C174.8481,-26.0202 175.8651,-26.0342 176.5031,-25.4152 C177.1391,-24.7962 177.1531,-23.7782 176.5331,-23.1432 C159.6611,-5.8042 148.1791,16.8888 144.2021,40.7548 C143.3351,45.9628 142.7371,52.5588 145.8371,57.3708 C150.1671,64.0908 160.0761,64.8838 167.1531,61.7668 C174.9731,58.3228 180.9051,50.9648 185.6701,45.0528 C213.4521,10.5908 240.7531,-25.0272 266.8161,-60.8122 C267.3371,-61.5292 268.3411,-61.6872 269.0611,-61.1652 C269.7791,-60.6422 269.9361,-59.6372 269.4131,-58.9192 C243.3211,-23.0922 215.9881,12.5678 188.1721,47.0708 C183.1881,53.2538 176.9851,60.9488 168.4471,64.7078 C165.5021,66.0058 162.1251,66.7058 158.7591,66.7058" id="Fill-34" fill="#7eb1a8" mask="url(#masterstickershanging-lamp-1-mask-6)"/></g><g id="Group-39"><mask id="masterstickershanging-lamp-1-mask-8" fill="#fff"><use xlink:href="#masterstickershanging-lamp-1-path-7"/></mask><g id="Clip-38"/><path d="M252.5599,147.468 C247.2159,147.468 242.0759,146.665 237.3219,145.036 C221.2139,139.517 210.0549,123.342 211.9169,108.212 C213.0389,99.096 218.5479,89.958 227.8499,81.786 C247.0579,64.911 274.4969,57.864 299.4589,63.392 C300.3259,63.584 300.8729,64.442 300.6809,65.309 C300.4899,66.176 299.6349,66.723 298.7639,66.53 C274.7889,61.218 248.4229,67.99 229.9709,84.201 C223.9049,89.531 216.4009,98.092 215.1069,108.605 C213.4239,122.283 223.6389,136.95 238.3629,141.995 C251.0869,146.356 266.8729,144.354 281.6719,136.503 C295.1859,129.333 306.4979,118.572 317.4369,108.166 C318.0799,107.555 319.0969,107.579 319.7079,108.222 C320.3209,108.865 320.2949,109.883 319.6519,110.495 C308.5559,121.051 297.0809,131.966 283.1779,139.343 C273.0599,144.711 262.4619,147.468 252.5599,147.468" id="Fill-37" fill="#7eb1a8" mask="url(#masterstickershanging-lamp-1-mask-8)"/></g><g id="Group-42"><mask id="masterstickershanging-lamp-1-mask-10" fill="#fff"><use xlink:href="#masterstickershanging-lamp-1-path-9"/></mask><g id="Clip-41"/><path d="M62.2454,202.011 C62.1184,202.011 61.9894,201.996 61.8604,201.964 C60.9984,201.752 60.4724,200.881 60.6834,200.019 C67.0974,173.966 73.7294,147.026 71.6534,119.827 C70.7624,108.15 67.5124,100.613 61.7194,96.786 C53.3914,91.286 41.9954,94.885 33.9024,98.874 C7.2694,111.999 -13.9936,136.73 -22.9786,165.028 C-23.2476,165.874 -24.1496,166.342 -24.9966,166.073 C-25.8426,165.805 -26.3116,164.902 -26.0426,164.055 C-16.7976,134.94 5.0804,109.495 32.4804,95.991 C41.3294,91.631 53.8894,87.762 63.4904,94.104 C70.1674,98.514 73.8864,106.849 74.8584,119.583 C76.9744,147.294 70.2784,174.489 63.8054,200.788 C63.6244,201.521 62.9684,202.011 62.2454,202.011" id="Fill-40" fill="#7eb1a8" mask="url(#masterstickershanging-lamp-1-mask-10)"/></g><g id="Group-45"><mask id="masterstickershanging-lamp-1-mask-12" fill="#fff"><use xlink:href="#masterstickershanging-lamp-1-path-11"/></mask><g id="Clip-44"/><path d="M60.4661,29.1028 C53.2181,29.1028 44.6071,25.6868 41.2131,17.9068 C40.8591,17.0928 41.2311,16.1448 42.0441,15.7908 C42.8601,15.4348 43.8061,15.8078 44.1601,16.6218 C46.6211,22.2648 53.5091,26.0568 60.9671,25.8818 C68.4441,25.6898 75.5971,22.0258 80.9921,18.8538 C110.5511,1.4858 132.8021,-27.2732 152.4331,-52.6482 C152.9781,-53.3492 153.9871,-53.4782 154.6881,-52.9352 C155.3901,-52.3922 155.5191,-51.3832 154.9761,-50.6812 C135.1661,-25.0772 112.7141,3.9428 82.6211,21.6258 C76.8921,24.9928 69.2621,28.8848 61.0491,29.0948 C60.8561,29.0998 60.6611,29.1028 60.4661,29.1028" id="Fill-43" fill="#7eb1a8" mask="url(#masterstickershanging-lamp-1-mask-12)"/></g></g></g></g></svg>